<?xml version="1.0" encoding="UTF-8"?>
<svg xmlns="http://www.w3.org/2000/svg" viewBox="0 0 672.88 673.01">
  <defs>
    <style>
      .cls-1 {
        fill: #fb5318;
      }

      .cls-1, .cls-2, .cls-3, .cls-4, .cls-5, .cls-6, .cls-7, .cls-8, .cls-9, .cls-10, .cls-11, .cls-12, .cls-13, .cls-14, .cls-15, .cls-16, .cls-17, .cls-18, .cls-19, .cls-20, .cls-21, .cls-22, .cls-23, .cls-24, .cls-25, .cls-26, .cls-27, .cls-28, .cls-29, .cls-30, .cls-31, .cls-32, .cls-33, .cls-34, .cls-35, .cls-36, .cls-37, .cls-38, .cls-39, .cls-40, .cls-41 {
        stroke-width: 0px;
      }

      .cls-2 {
        fill: #f95b20;
      }

      .cls-3 {
        fill: #f95e23;
      }

      .cls-4 {
        fill: #f96d3a;
      }

      .cls-5 {
        fill: #f9571c;
      }

      .cls-6 {
        fill: #f8763d;
      }

      .cls-7 {
        fill: #f8703c;
      }

      .cls-8 {
        fill: #f86d31;
      }

      .cls-9 {
        fill: #f8682c;
      }

      .cls-10 {
        fill: #f8743c;
      }

      .cls-11 {
        fill: #f87135;
      }

      .cls-12 {
        fill: #f86227;
      }

      .cls-13 {
        fill: #fb6939;
      }

      .cls-14 {
        fill: #06a2ad;
      }

      .cls-15 {
        fill: #069faa;
      }

      .cls-16 {
        fill: #06a4b0;
      }

      .cls-17 {
        fill: #05919b;
      }

      .cls-18 {
        fill: #058e97;
      }

      .cls-19 {
        fill: #068b94;
      }

      .cls-20 {
        fill: #059aa5;
      }

      .cls-21 {
        fill: #06878f;
      }

      .cls-22 {
        fill: #059ca7;
      }

      .cls-23 {
        fill: #0598a2;
      }

      .cls-24 {
        fill: #08686a;
      }

      .cls-25 {
        fill: #07a6b2;
      }

      .cls-26 {
        fill: #166d75;
      }

      .cls-27 {
        fill: #167072;
      }

      .cls-28 {
        fill: #cd4928;
      }

      .cls-29 {
        fill: #e25835;
      }

      .cls-30 {
        fill: #d65633;
      }

      .cls-31 {
        fill: #fe5e35;
      }

      .cls-32 {
        fill: #fff;
      }

      .cls-33 {
        fill: #fc6530;
      }

      .cls-34 {
        fill: #fc6537;
      }

      .cls-35 {
        fill: #fc6236;
      }

      .cls-36 {
        fill: #f6783c;
      }

      .cls-37 {
        fill: #f67539;
      }

      .cls-38 {
        fill: #f6793f;
      }

      .cls-39 {
        fill: #027e86;
      }

      .cls-40 {
        fill: #04949e;
      }

      .cls-41 {
        fill: #04828a;
      }
    </style>
  </defs>
  <g id="Layer_3" data-name="Layer 3">
    <circle class="cls-32" cx="336.87" cy="336.01" r="336.01"/>
  </g>
  <g id="Layer_1" data-name="Layer 1">
    <path class="cls-15" d="m670.96,306.05c1.69,15.3,2.05,30.63.9,45.99-2.77,1.55-4.79-.57-6.86-1.64-29.6-15.26-59.47-29.99-88.97-45.45-3.26-1.71-6.62-3.12-10.22-3.96-10.69-6.44-20.51-14.18-31.18-20.68-26.58-16.17-54.83-28.61-84.21-38.65-2.35-.8-4.83-1.34-6.87-2.9-4.54-4.03-10.05-6.53-15.38-9.16-31.34-15.46-62.32-31.63-93.48-47.43-33.68-17.08-67.22-34.46-100.98-51.39-1.75-.88-3.79-1.48-4.48-3.67,4.56-13.06,11.78-24.3,22.56-33.12,1.93-.99,3.55-.11,5.13.87,3.97,2.46,8.21,4.42,12.39,6.47,30.02,14.76,59.66,30.28,89.51,45.38,34.6,17.5,69.11,35.18,103.66,52.79,35.44,18.06,70.87,36.14,106.32,54.17,33.23,16.89,66.26,34.19,99.68,50.69.91.45,1.72,1,2.46,1.68h.02Z"/>
    <path class="cls-31" d="m101.05,574.19c-10.84-8.44-20.14-18.42-28.85-28.98-2.16-2.61-4.08-5.42-6.11-8.14,1.64-3.87,4.93-2.42,7.57-2.06,10.06,1.4,20.04,3.37,30.04,5.14,51.83,9.17,103.69,18.21,155.52,27.37,63.48,11.22,126.95,22.46,190.44,33.65,3.55.62,7.36.73,10.28,3.39.45,3.35-2.45,4-4.44,5.1-16.39,9.05-33.72,15.89-51.76,20.78-27.76,7.53-56.02,10.74-84.83,11.11-36.91.48-73.06-3.84-108.44-14.12-32.71-9.51-64.26-21.84-92.66-41.16-1.78-1.21-3.7-2.26-5.21-3.82-3.95-2.6-7.1-6.34-11.55-8.25h0Z"/>
    <path class="cls-13" d="m25.31,465.01c-4.52-12.11-9.19-24.17-12.55-36.68-.31-1.14-.65-2.15-.44-3.31,1.7-1.27,3.54-.56,5.3-.26,46.31,7.92,92.55,16.22,138.82,24.36,49.06,8.63,98.11,17.33,147.16,26,69.72,12.33,139.47,24.54,209.19,36.86,2.83.5,5.6.82,8.36-.26,1.86.47,2.07,2.06,2.17,3.53.79,12.1-2.11,23.45-7.03,34.39-.42.93-1.13,1.64-2.12,2.01-5.99-.29-11.8-1.8-17.68-2.84-61.18-10.79-122.36-21.58-183.55-32.36-66.92-11.79-133.85-23.59-200.76-35.42-26.9-4.75-53.78-9.6-80.71-14.16-2.12-.36-4.33-.45-6.14-1.86h-.02Z"/>
    <path class="cls-14" d="m670.96,306.05c-1.95.2-3.53-.76-5.16-1.59-30.14-15.23-60.42-30.19-90.36-45.8-16.23-8.46-32.65-16.5-48.95-24.82-35.99-18.38-72.14-36.46-107.98-55.13-17.26-8.99-34.73-17.55-52.06-26.41-35.54-18.16-71.12-36.25-106.72-54.31-2.64-1.34-4.76-3.73-7.94-3.99,12.24-12.1,27.33-19.23,43.28-24.88,1.66-.58,2.47,1.02,3.75,1.43,15.66,8.15,31.46,16.01,47.2,23.99,30.74,15.59,61.42,31.29,92.17,46.86,36.53,18.51,73,37.15,109.49,55.75,33.37,17.01,66.6,34.3,100.15,50.97,5.06,2.51,9.91,5.39,14.94,7.96,4.42,16.38,7.49,32.99,8.18,49.98h0Z"/>
    <path class="cls-35" d="m460.07,604.99c-17.68-4.28-35.73-6.62-53.59-9.97-16.07-3.01-32.21-5.68-48.31-8.5-23.92-4.19-47.83-8.35-71.74-12.57-19.36-3.42-38.7-6.94-58.06-10.35-20.33-3.58-40.68-7.07-61.01-10.65-17.73-3.12-35.45-6.29-53.18-9.44-13.98-2.49-27.96-5.05-41.97-7.4-1.97-.33-4.34-.94-6.13.95-10.6-14.51-20.35-29.55-28.22-45.75-.35-.72-.56-1.51-.84-2.27,2.27-2.92,5.25-1.44,7.84-.99,22.8,3.91,45.59,7.95,68.37,11.98,88.84,15.7,177.68,31.4,266.53,47.05,38.36,6.76,76.72,13.53,115.09,20.23,2.13.37,4.31.54,6.24,1.62,2.81,3.3-.42,5.22-2.02,6.99-7.36,8.14-15.42,15.55-24.48,21.8-3.14,2.17-6.3,4.32-9.56,6.3-1.48.9-2.99,2.33-4.97.97h0Z"/>
    <path class="cls-28" d="m460.07,604.99c7-2.81,12.88-7.45,18.74-12,8.64-6.72,16.96-13.85,23.23-23,3.49-6.65,7.68-12.86,11.98-19,5.7-11.27,8.41-23.2,7.98-35.83-.04-1.16.05-2.35-.98-3.2-1.41-1.21-1.29-3-1.72-4.57-3.41-12.22-10.71-21.57-21.14-28.6-19.07-13.26-40.26-21.98-62.36-28.53-28.4-8.41-57.24-15.21-85.86-22.8-23.96-5.96-46.83-15.1-69.78-24-22.07-8.56-43.09-19.35-64.1-30.15-18.63-9.69-35.96-21.39-52.58-34.19-15.82-11.95-30.87-24.81-44.55-39.16-11.94-12.53-23.2-25.66-32.29-40.5-1-1.64-2.69-3.11-1.76-5.41.41-.37.82-.37,1.24,0,27.79,35.86,63.94,61.17,103.51,82.23,47.34,25.2,97.76,41.95,149.62,54.73,41.68,10.28,83.87,18.61,124.45,33.02,17.43,6.19,34.44,13.57,49.67,24.04,27.07,18.6,37.01,50.19,25.95,81.55-14.62,41.44-42.84,71.08-81.42,91.16-25.02,13.02-51.9,20.15-79.73,24.22-22.85,3.34-45.81,3.95-68.74,2.72-55.84-3-110.13-12.76-160.02-39.84-13.59-7.37-26.56-15.69-38.4-25.68-.31-1.02.03-1.47,1.12-1.26,18.76,13.04,38.85,23.55,60.1,31.95,22.28,8.8,45.12,15.69,68.6,20.42,14.12,2.84,28.36,4.66,42.75,5.82,16.47,1.33,32.94,1.2,49.36.65,35.39-1.19,69.75-7.9,102.45-21.99,8.54-3.68,17.13-7.27,24.7-12.82l-.02.02Z"/>
    <path class="cls-4" d="m499,478.03c9.45,5.82,15.91,14.12,19.94,24.35,1.2,3.05,2.5,6.15,2.08,9.59.08,2.08-.37,2.79-2.89,2.32-12.99-2.43-26.05-4.53-39.08-6.78-20.19-3.49-40.39-6.98-60.57-10.53-19.37-3.41-38.72-6.92-58.09-10.34-20.34-3.59-40.7-7.08-61.04-10.66-19.21-3.38-38.41-6.83-57.61-10.22-20.5-3.61-41.02-7.15-61.52-10.79-15.79-2.8-31.54-5.74-47.33-8.53-23.76-4.19-47.55-8.25-71.31-12.46-16.43-2.91-32.84-5.97-49.26-8.96-3.24-7.96-4.36-16.45-6.13-24.78-.57-2.69-.78-5.45-1.16-8.18,1.59-1.49,3.45-.89,5.21-.58,50.67,8.91,101.33,17.85,151.99,26.8,49.51,8.75,99.03,17.47,148.54,26.2,59.85,10.55,119.69,21.11,179.55,31.55,2.94.51,5.65,1.93,8.67,1.99h.01Z"/>
    <path class="cls-25" d="m351.97,54.9c13.95-2.54,28.04-3.16,42.17-3.2,53.86-.13,105.3,10.53,153.75,34.51,21.46,10.62,40.02,24.51,54.42,44.14,17.4,23.7,32.78,48.4,43.79,75.72-2.31,1.08-4.27-.16-6.11-1.15-22.34-11.93-45.3-22.63-67.61-34.61-1.03-.55-2.04-1.12-3.09-1.64-31.42-15.38-62.42-31.62-93.62-47.43-36.11-18.29-72.08-36.85-108.23-55.08-4.31-2.17-8.46-4.66-12.75-6.89-1.61-.83-4.05-1.53-2.73-4.36h.01Z"/>
    <path class="cls-7" d="m499,478.03c-5.18,1.91-9.96-.81-14.81-1.6-23.96-3.89-47.85-8.23-71.76-12.44-17.73-3.12-35.45-6.28-53.18-9.4-23.91-4.21-47.83-8.36-71.73-12.6-19.52-3.46-39.01-7.05-58.53-10.49-20.17-3.56-40.36-6.96-60.53-10.51-19.36-3.4-38.69-6.94-58.05-10.35-20.33-3.58-40.67-7.07-61-10.65-14.8-2.6-29.58-5.29-44.38-7.93-1.87-5.98-1.8-12.26-2.8-18.38-.41-2.5-.02-5.14-.91-7.61,1.78-.89,3.6-.39,5.39-.08,64.32,11.25,128.64,22.56,192.95,33.92,42.82,7.56,85.62,15.2,128.46,22.6,6.23,1.08,12.33,2.71,18.56,3.74,1.15.19,2.28.55,3.36-.21,33.88,9.37,68.4,16.45,101.64,28.07,16.79,5.87,32.91,13.24,47.33,23.91h0Z"/>
    <path class="cls-34" d="m514.02,550.99c-2.71,7.14-6.76,13.44-11.98,19-24.06-4.29-48.12-8.62-72.19-12.85-23.26-4.09-46.55-8.03-69.81-12.13-29.77-5.25-59.51-10.62-89.27-15.89-33.99-6.02-67.99-12-101.98-18-33.99-6-67.98-12.03-101.99-17.98-8.95-1.57-17.94-2.86-26.9-4.38-1.07-.18-1.95-.07-2.88.29-4.96-7.5-7.98-15.94-11.72-24.04,10,.12,19.63,2.79,29.4,4.42,24.12,4.01,48.19,8.35,72.28,12.62,19.37,3.43,38.71,7,58.07,10.43,20.18,3.57,40.38,7.01,60.56,10.55,17.74,3.11,35.48,6.27,53.22,9.39,23.92,4.21,47.86,8.38,71.78,12.6,19.37,3.42,38.72,6.93,58.09,10.35,20.34,3.59,40.73,6.93,61.03,10.73,8.11,1.52,16.4,2.26,24.29,4.9h0Z"/>
    <path class="cls-38" d="m85.06,254.07c4.74,9.94,11.73,18.36,18.57,26.82,7.49,9.27,15.49,18.15,24.19,26.33,11.58,10.88,23.52,21.34,36.25,30.87-1.51,3.75-4.77,2.39-7.24,2.1-8.09-.95-16.08-2.65-24.11-4.08-42.09-7.52-84.23-14.77-126.31-22.35-1.78-.32-3.69-.27-5.11-1.7.21-11.65,1.99-23.14,3.96-34.56,3.26-18.95,8.2-37.5,14.89-55.55,1.12-3.03,1.82-6.27,3.89-8.9,1.99-1.51,4.12-.65,6.2-.31,9.93,1.66,19.82,3.52,29.74,5.21,2.83.48,5.56.55,8.31-.22,3.36,12,7.99,23.39,15.73,33.31-.65,1.35.86,1.96,1.03,3.03h.01Z"/>
    <path class="cls-10" d="m350.03,426.05c-6,2.67-11.71-.29-17.4-1.22-22.33-3.67-44.59-7.82-66.87-11.79-29.6-5.28-59.19-10.66-88.81-15.84-33.36-5.83-66.77-11.43-100.14-17.23-24.58-4.27-49.13-8.71-73.69-13.1-.64-.11-1.22-.52-1.83-.79-.23-10.01-1.97-19.97-1-30.02,2.24-1.96,4.77-.99,7.16-.57,30.18,5.3,60.36,10.61,90.53,15.98,38.69,6.89,77.44,13.45,116.09,20.6.66.12,1.32.19,1.98.02,8.16,4.06,16.34,8.08,24.48,12.18,24.96,12.57,50.91,22.69,77.28,31.86,10.63,3.7,21.18,7.58,32.21,9.93h.01Z"/>
    <path class="cls-24" d="m444.01,238.04c20.13,6.85,39.98,14.44,59.16,23.66,22.23,10.69,42.96,23.84,62.88,38.33,7.35,3.11,12.68,8.97,18.69,13.87,15.08,12.29,27.83,26.64,37.6,43.54,2.17,3.75,3.94,7.7,5.96,11.52,3.42,7.92,6.51,15.96,8.5,24.37.56,2.37,1.54,4.77.64,7.3-.32.53-.76.66-1.31.38-12.73-38.27-40.25-64.33-72.01-86.72-39.86-28.11-84.39-46.11-131.08-59.12-35.68-9.95-72.06-17.17-107.76-27.09-25.06-6.96-49.49-15.48-71.7-29.3-12.65-7.88-23.46-17.56-27.83-32.61-.37-1.26-.5-2.58-.75-3.88-.87-2.43-.23-4.95-.4-7.42-.05-.66,0-1.34.74-1.77,1.42.06,1.79,1.29,2.13,2.34,3.53,10.81,11.83,17,21.32,22,18.52,9.76,38.38,16.04,58.28,22.22,34.22,10.62,69.24,18.26,103.83,27.5,8.85,2.36,17.58,5.15,26.39,7.65,2.41.69,4.68,1.73,6.71,3.23h.01Z"/>
    <path class="cls-22" d="m444.01,238.04c-26.55-7.87-53.33-14.89-80.21-21.54-34.64-8.57-69.1-17.78-102.18-31.43-7.07-2.92-13.99-6.23-20.37-10.5-7.49-5-13.46-11.23-16.24-20.35v8.07c-1.69-5.18-1.03-10.4-.2-15.59,1.06-6.61,1.54-13.36,4.41-19.57,27.75,14.05,55.52,28.09,83.26,42.17,39.3,19.96,78.64,39.85,117.81,60.06,4.74,2.45,10.26,4.06,13.72,8.68h0Z"/>
    <path class="cls-16" d="m351.97,54.9c.03,1.87,1.51,2.42,2.83,3.11,6.17,3.25,12.31,6.59,18.53,9.74,30.42,15.42,60.89,30.75,91.3,46.19,35.6,18.07,71.18,36.17,106.72,54.33,21.76,11.12,43.44,22.42,65.19,33.57,3.09,1.59,6.37,2.82,9.57,4.21,3.27,6.77,6.11,13.71,8,21-3.41.03-6.53-1.14-9.36-2.81-6.76-3.98-13.84-7.29-20.84-10.77-27.73-13.76-55.19-28.04-82.8-42.04-34.28-17.39-68.51-34.88-102.75-52.35-34.99-17.84-69.9-35.82-104.98-53.48-2.52-1.27-6.43-1.89-5.32-6.4,7.87-1.99,15.78-3.79,23.91-4.32v.02Z"/>
    <path class="cls-6" d="m216.06,372.08c-5.15,2.39-10-.24-14.89-1.07-23.1-3.89-46.17-7.93-69.24-12.03-29.4-5.22-58.77-10.57-88.16-15.82-13.31-2.38-26.64-4.69-39.97-6.99-1.13-.2-2.32-.09-3.48-.12-.58-8.04-.13-16.03,1-23.99,9.79.35,19.24,2.9,28.83,4.52,20.17,3.42,40.33,6.94,60.48,10.49,19.5,3.44,38.97,7.08,58.49,10.39,4.9.83,9.87,3.14,14.96.62,16.48,12.63,33.68,24.17,51.99,33.99h-.01Z"/>
    <path class="cls-16" d="m655.09,229.79c2.65,6.21,4.55,12.64,5.8,19.26-4.82.23-8.37-2.88-12.24-4.92-4.27-2.25-8.49-4.6-12.83-6.73-30.37-14.89-60.33-30.59-90.5-45.87-34.63-17.53-69.2-35.19-103.76-52.85-35.46-18.12-70.92-36.22-106.41-54.26-8.91-4.53-17.76-9.16-26.65-13.74-2.02-1.04-4.42-1.84-4.67-4.69,4.86-2.29,10.02-3.62,15.25-4.72,5.33,1.59,9.84,4.81,14.71,7.32,17.61,9.08,35.36,17.87,53.02,26.85,30.42,15.47,60.83,30.97,91.28,46.39,36.68,18.58,73.37,37.14,109.9,56.02,19.67,10.17,39.81,19.4,59.08,30.34,2.48,1.41,5.02,2.73,8.02,1.59h0Z"/>
    <path class="cls-16" d="m303.84,66c1.48,1.32,2.99,2.53,4.81,3.45,23.18,11.69,46.34,23.44,69.48,35.21,35.75,18.18,71.49,36.38,107.22,54.59,35.14,17.9,70.3,35.79,105.41,53.74,23.4,11.97,46.75,24.04,70.13,36.07,1.16,2.19,1.83,4.52,1.88,7.01-2.28.28-4.27-.54-6.14-1.69-8.23-5.09-17.1-8.93-25.69-13.3-25.8-13.13-51.8-25.89-77.43-39.35-17.24-9.06-34.75-17.56-52.08-26.42-35.56-18.17-71.17-36.23-106.74-54.36-30.97-15.79-61.93-31.63-92.88-47.48-1.31-.67-2.51-1.56-3.76-2.35-.88-.75-2.1-1.39-1-2.83,2.26-.76,4.51-1.52,6.77-2.29h.02Z"/>
    <path class="cls-22" d="m627.05,369.03c-8.15-17.15-19.03-32.37-32.98-45.21-9.01-8.29-18.66-15.88-28.02-23.79,7.94,1.2,14.52,5.68,21.32,9.34,17.12,9.23,34.8,17.35,51.99,26.43,10.71,5.66,21.31,11.51,32.49,16.23.21,12.1-1.12,24.07-3.06,35.99-2.21,1.72-4.14.25-5.96-.7-11.88-6.19-23.71-12.49-35.78-18.3h0Z"/>
    <path class="cls-16" d="m655.09,229.79c-1.36,4.25-3.93,1.83-5.87.85-14.4-7.26-28.73-14.67-43.11-21.99-21.5-10.94-43.16-21.55-64.47-32.85-17.2-9.12-34.73-17.57-52.06-26.42-34.95-17.86-69.97-35.6-104.91-53.47-20.72-10.59-41.38-21.33-62.05-32.02-1.31-.68-2.83-1.11-3.53-2.62,2.99-.69,5.98-1.37,8.97-2.06.31,3.06,2.89,3.83,5.08,4.93,13.98,7.02,28.02,13.93,41.96,21.01,36.19,18.37,72.34,36.8,108.5,55.23,33.79,17.22,67.58,34.42,101.34,51.69,20.28,10.38,40.52,20.81,60.68,31.41,2.77,1.46,6.35.8,8.49,3.56.84.73.88,1.74.97,2.74h.01Z"/>
    <path class="cls-33" d="m482.36,33.91c3.27,1.67,8.95,3.96,19.41,9.7.05.03,0,.13-.06.11-7.62-3.4-17.83-7.84-20.8-9.23l-1.89-.83c-.38-.14-1.8-.73-2.18-.86-16.33-5.86-32.69-11.6-49.56-15.81-36.4-9.08-73.3-13.09-110.82-11.39-32.07,1.46-63.3,7.19-93.7,17.57-11.74,4.01-22.73,9.65-33.91,14.88-1.97-.44-1.51-1.55-.75-2.74,9.01-5.59,19.02-9.06,28.76-13.02,21.24-8.64,43.4-14.2,65.99-17.86,14.71-2.39,29.54-3.79,44.53-3.34,15.78.47,31.61-.84,47.33,1.27,19.41,2.6,38.62,6.3,57.41,11.89,15.77,4.69,31.31,10.08,46,17.64l4.25,2.03h-.01Z"/>
    <path class="cls-20" d="m627.05,369.03c2.26-.26,4.2.59,6.14,1.6,10.14,5.27,20.31,10.5,30.48,15.74,1.61.83,3.18,1.85,5.12,1.66-1.24,9.82-2.8,19.58-6,28.99-1.75,1.49-3.49.61-5.01-.25-6.55-3.71-13.38-6.9-19.91-10.65-.7-.03-.7-.51-.65-1.02.68-1.45-.34-2.77-.33-4.18-1.47-11.19-5.69-21.53-9.84-31.89h0Z"/>
    <path class="cls-36" d="m68.3,217.73c-1.17,3.91-4.27,2.38-6.55,1.99-12.59-2.1-25.13-4.43-37.7-6.68,2.07-8.2,6.08-15.57,9.89-23.03,1.53-1.06,3.19-.63,4.81-.34,7.5,1.32,14.98,2.77,22.51,3.98,1.85.3,3.55.81,4.71,2.43.55,7.24.76,14.52,2.33,21.65Z"/>
    <path class="cls-23" d="m637.87,406.12c5.9.68,10.5,4.32,15.55,6.9,3.04,1.55,5.75,3.82,9.37,4-.27,6.59-3.08,12.53-4.78,18.74-1.61,5.89-3.39,11.73-5.94,17.29-5.14-.38-9.39-2.67-13.15-6.06,1.26-10.51,1.55-21.06.93-31.62-1-1.67.6-4.05-1.47-5.44-.17-1.27-.34-2.55-.52-3.82h.01Z"/>
    <path class="cls-39" d="m422.02,661.79c-7.05,2.43-14.4,3.6-21.66,5.11-11.03,2.3-22.22,3.77-33.45,4.58-16.4,1.19-32.78,2.36-49.28.72-7.99-.79-16.01-1.2-24.01-2.15-12.45-1.49-24.68-3.82-36.87-6.71-26.47-6.28-51.61-15.96-75.74-28.41-.41-.21-.72-.61-1.07-.92.71-.64,1.44-.62,2.2-.11,22.95,10.16,46.37,19.04,70.7,25.36,34.86,9.05,70.21,13.63,106.24,10.56,17.02-1.45,33.85-4.45,50.53-8.18,4.13-.92,8.27-1.83,12.4-2.74.86.96.83,1.92,0,2.88h.01Z"/>
    <path class="cls-37" d="m65.96,196.08c-10.68-2.02-21.35-4.04-32.03-6.07,3.08-6.48,5.8-13.14,10.11-18.96,8.27-.48,16.14,1.34,23.87,4.04-.98,6.97-2.02,13.93-1.95,20.99h0Z"/>
    <path class="cls-40" d="m638.93,447.01c4.38,2.02,8.76,4.04,13.15,6.06-4.39,12.34-9.3,24.45-16.11,35.7-2.76-1.97-5.85-3.33-8.89-4.77,5.23-11.92,9.2-24.24,11.85-36.99h0Z"/>
    <path class="cls-8" d="m79.93,141.09c-2.67,6.33-5.33,12.66-8,18.99-4.92,1.93-15.7-.37-18.9-4.03,3.56-7.76,8.97-14.28,14.08-20.99.34,2.6,2.51,2.7,4.39,3.26,2.83.85,6.03.59,8.43,2.76h0Z"/>
    <path class="cls-11" d="m53.03,156.06c5.99,2.77,12.49,3.19,18.9,4.03-1.34,5-2.68,10-4.02,15-8.13-.34-15.98-2.28-23.87-4.04,2.2-5.47,5.16-10.49,8.99-14.99Z"/>
    <path class="cls-17" d="m627.07,483.99c3.99-.31,7.08,1.04,8.89,4.77-5.64,11.95-11.97,23.51-19.3,34.51-.44.66-1.12,1.16-1.68,1.74-.36-.36-.74-.95-.52-1.29,2.38-3.76.17-6.25-2.29-8.7,4.97-10.34,9.94-20.69,14.91-31.03h-.01Z"/>
    <path class="cls-18" d="m612.17,515.03c.73.38,1.43.82,2.18,1.13,2.91,1.18,4.55,2.63,1.78,5.68-.7.77-.78,2.1-1.15,3.18-7.91,12.43-16.59,24.27-27,34.76-1.39-.93-3.06-1.44-4.13-2.83,10.48-13.27,19.98-27.2,28.32-41.91h0Z"/>
    <path class="cls-9" d="m79.93,141.09c-3.66-.1-7.13-1.21-10.65-2.04-2.32-.54-2.83-1.91-2.16-3.99,4.41-6.78,9.79-12.8,15.02-18.93,1.9,3.51,6.93,2.37,8.79,5.93-3.67,6.34-7.33,12.68-11,19.03Z"/>
    <path class="cls-41" d="m422.02,661.79v-2.88c16.57-4.88,32.93-10.33,48.83-17.12,14.56-6.22,28.49-13.57,41.85-22.06.67-.43,1.47-.66,2.21-.99.93.39,1.41,1.01,1.06,2.06-25.33,15.66-51.72,29.05-80.47,37.34-4.47,1.29-8.99,2.44-13.48,3.66h0Z"/>
    <path class="cls-12" d="m90.93,122.07c-1.86-.65-3.67-1.59-5.58-1.87-2.56-.38-3.34-1.76-3.21-4.06,4.3-4.72,8.09-9.9,12.97-14.09,2.45,1.62,6.1.92,7.79,4.01-3.99,5.33-7.98,10.67-11.96,16h-.01Z"/>
    <path class="cls-21" d="m515.97,620.79c-.35-.69-.71-1.37-1.06-2.06,9.24-7.02,19.23-13.03,27.92-20.81,5.29-4.74,10.72-9.33,16.09-13.99,2.17-.11,2.98.75,2.06,2.86-12.77,10.81-25.32,21.91-39.44,31.01-1.76,1.14-3.71,1.99-5.57,2.98h0Z"/>
    <path class="cls-19" d="m560.99,586.81c-.04-1.42-.78-2.34-2.06-2.86,8.61-8.72,17.06-17.6,24.93-27,2.03,0,3.88.24,4.13,2.83-6.61,6.84-12.19,14.64-19.46,20.86-2.47,2.11-5.02,4.12-7.54,6.17Z"/>
    <path class="cls-1" d="m188.1,35.3c.03.98-.17,2.01.75,2.74-9.86,6.37-20.72,11.08-30.18,18.14-2.82,2.1-5.83,3.94-8.75,5.9-3.84-.79-2.6-2.68-.79-4.34,2.07-1.89,4.74-2.98,6.93-4.74,10.23-6.71,20.45-13.44,32.03-17.7h.01Z"/>
    <path class="cls-3" d="m102.89,106.07c-2.3-1.91-6.54-.06-7.79-4.01,4.57-5.13,9.25-10.15,14.98-14.06,1.69,1.58,4.29,2,5.41,4.29-4.2,4.59-8.4,9.19-12.6,13.78Z"/>
    <path class="cls-5" d="m156.07,53.01c-1.2,2.4-3.81,3.04-5.71,4.56-1.67,1.33-3.33,2.73-.42,4.51-1.68,2.77-4.52,4.29-7.08,5.87-5.13,3.16-9.24,7.5-13.92,11.16-4.06,1.27-4.86.76-4.86-3.1.32-.31.64-.62.96-.93,1.49-.82,2.71-2.01,4.05-3.03l-.03.03c1.94-1.01,3.23-2.83,5.04-4l-.02.02c2.31-1.71,4.82-3.15,7.02-5.02,4.58-3.97,9.38-7.61,14.97-10.07h0Z"/>
    <path class="cls-2" d="m124.07,76.01c.23,3.21,2.54,3.16,4.86,3.1-3.97,4.91-8.96,8.79-13.44,13.17-1.68-1.59-5.8-.09-5.41-4.29,3.89-4.9,8.9-8.49,14-11.98h0Z"/>
    <path class="cls-29" d="m112.11,580.96c-.37.42-.75.84-1.12,1.26-3.64-2.28-7.01-4.89-9.95-8.04.9-1.59,1.8-.8,2.75-.02,2.76,2.28,5.55,4.53,8.32,6.8Z"/>
    <path class="cls-26" d="m182.15,633.91c-.73.04-1.47.07-2.2.11-3.24-.84-6.13-2.35-9.85-5.41,5.25,1.33,8.7,3.21,12.05,5.3Z"/>
    <path class="cls-2" d="m141.09,63.08c-1.6,2.7-4.09,4.17-7.02,5.02,1.8-2.42,4.28-3.9,7.02-5.02Z"/>
    <path class="cls-2" d="m134.1,68.08c-1.22,1.91-2.44,3.83-5.04,4,1.34-1.76,2.74-3.45,5.04-4Z"/>
    <path class="cls-20" d="m638.39,409.94c3.16,1.09.87,3.65,1.47,5.44-.49-1.81-.98-3.62-1.47-5.44Z"/>
    <path class="cls-2" d="m129.09,72.05c-.83,1.7-1.96,3.01-4.05,3.03,1.02-1.45,2.15-2.76,4.05-3.03Z"/>
    <path class="cls-27" d="m636.88,400.92c1.45,1.28,1.42,2.69.33,4.17-.19-1.41-1.55-2.5-1.08-4.08.25,0,.5-.04.74-.09h.01Z"/>
    <path class="cls-30" d="m85.06,254.07c-1.05-.77-2.65-1.35-1.03-3.03.69,1.01,1.39,2.02,2.08,3.03h-1.05Z"/>
    <path class="cls-16" d="m297.06,68.28c.33.94.67,1.89,1,2.83-1.55.16-1.96-1.38-2.99-1.99.66-.28,1.33-.56,1.99-.84Z"/>
  </g>
</svg>